<svg width="280" height="280" xmlns="http://www.w3.org/2000/svg" fill="none">

 <g>
  <title>Layer 1</title>
  <path id="svg_1" fill="#DEE9FF" d="m84.5562,73.886c0,0 30.0238,22.784 75.6678,-19.818c40.536,-37.8337 73.635,21.8595 73.866,50.446c0.3,37.03 -40.536,66.659 -20.718,90.981c19.817,24.322 -39.302,64.486 -71.164,29.727c-39.636,-43.239 -50.3735,-8.107 -72.9656,-8.107c-16.2146,0 -49.5048,-40.29 -27.0243,-70.264c18.9171,-25.222 8.6,-33.593 3.6039,-42.337c-7.2071,-12.6118 9.9083,-46.8425 38.7342,-30.628z"/>
  <path id="svg_2" fill="#BDD6F9" d="m205.092,124.235c1.614,0.6 3.377,0.64 5.055,0.254c7.03,-1.613 31.203,-5.886 27.003,12.846c-0.915,3.716 -15.072,24.53 5.089,32.127c1.478,0.564 3.04,0.872 4.621,0.91c6.208,0.128 18.509,-1.338 23.657,-6.578c6.22,-6.331 -0.575,-3.329 -0.575,-3.329c0,0 -23.644,10.318 -31.996,-0.629c-0.929,-1.218 -1.521,-2.987 -1.69,-4.51c-0.294,-2.64 0.878,-6.129 2.418,-9.167c2.085,-4.111 12.092,-22.604 -9.636,-27.991c-5.005,-1.192 -12.275,-2.262 -21.648,1.684c-5.468,2.302 -4.257,3.655 -2.298,4.383z"/>
  <path id="svg_3" fill="#0E84E5" d="m209.93,117.331l-6.293,2.356c-2.172,0.813 -3.274,3.233 -2.461,5.405l0.312,0.834c0.813,2.172 3.233,3.274 5.405,2.461l6.294,-2.355c2.172,-0.813 3.274,-3.233 2.461,-5.406l-0.312,-0.833c-0.813,-2.173 -3.233,-3.275 -5.406,-2.462z"/>
  <path id="svg_4" fill="white" d="m171.3,124.147l-20.754,7.768c-1.087,0.406 -1.638,1.616 -1.231,2.702l0.082,0.219c0.406,1.086 1.616,1.637 2.703,1.231l20.754,-7.768c1.087,-0.407 1.638,-1.617 1.231,-2.703l-0.082,-0.219c-0.406,-1.086 -1.616,-1.637 -2.703,-1.23z"/>
  <path id="svg_5" fill="white" d="m177.093,139.624l-20.755,7.767c-1.086,0.407 -1.637,1.617 -1.23,2.703l0.081,0.219c0.407,1.086 1.617,1.637 2.703,1.23l20.755,-7.767c1.086,-0.407 1.637,-1.617 1.231,-2.703l-0.082,-0.219c-0.406,-1.086 -1.617,-1.637 -2.703,-1.23z"/>
  <path id="svg_6" fill="#5895F9" d="m196.255,113.585l-16.821,6.295c-2.173,0.813 -3.275,3.234 -2.462,5.406l5.744,15.345c0.813,2.172 3.233,3.274 5.405,2.461l16.822,-6.295c2.172,-0.813 3.274,-3.233 2.461,-5.406l-5.743,-15.345c-0.813,-2.172 -3.233,-3.274 -5.406,-2.461z"/>
  <path id="svg_7" fill="#699CFF" d="m181.172,117.61l-16.822,6.296c-2.172,0.813 -3.274,3.233 -2.461,5.406l6.852,18.307c0.813,2.172 3.233,3.274 5.405,2.461l16.822,-6.295c2.172,-0.813 3.274,-3.233 2.461,-5.406l-6.852,-18.307c-0.813,-2.173 -3.233,-3.275 -5.405,-2.462z"/>
  <path id="svg_8" fill="#208AF2" d="m183.805,113.895l-0.132,0.049c-1.448,0.542 -2.183,2.156 -1.641,3.604l9.599,25.647c0.542,1.448 2.155,2.183 3.603,1.641l0.132,-0.05c1.449,-0.542 2.183,-2.155 1.641,-3.603l-9.598,-25.647c-0.542,-1.448 -2.156,-2.183 -3.604,-1.641z"/>
  <path id="svg_9" fill="#BDD6F9" d="m12.2816,130.292c0,0 33.7831,-9.494 28.8784,12.38c-0.8518,3.461 -13.1129,21.281 1.4919,29.837c3.136,1.837 6.755,2.651 10.3893,2.632c6.516,-0.034 16.8459,-1.288 21.4865,-6.011c6.2193,-6.331 -0.5751,-3.329 -0.5751,-3.329c0,0 -19.4022,7.981 -29.3839,1.619c-3.4083,-2.172 -4.9532,-6.378 -4.0277,-10.313c0.4731,-1.954 1.1934,-3.84 2.1437,-5.612c2.1708,-4.066 12.0921,-22.604 -9.6359,-27.991c-5.0053,-1.192 -12.2751,-2.262 -21.6488,1.684c-9.37369,3.947 0.8816,5.104 0.8816,5.104z"/>
  <path id="svg_10" fill="#0E84E5" d="m79.0704,160.906l-6.2932,2.356c-2.1725,0.813 -3.2745,3.233 -2.4614,5.406l0.312,0.833c0.813,2.173 3.2332,3.275 5.4057,2.461l6.2932,-2.355c2.1725,-0.813 3.2744,-3.233 2.4614,-5.406l-0.312,-0.833c-0.813,-2.173 -3.2333,-3.275 -5.4057,-2.462z"/>
  <path id="svg_11" fill="#5895F9" d="m89.7031,150.552l-9.3269,3.491c-2.1725,0.813 -3.2745,3.233 -2.4614,5.406l4.4974,12.016c0.8131,2.173 3.2333,3.275 5.4057,2.462l9.3269,-3.491c2.1725,-0.813 3.2742,-3.233 2.4614,-5.406l-4.4974,-12.016c-0.8131,-2.173 -3.2333,-3.275 -5.4057,-2.462z"/>
  <path id="svg_12" fill="#699CFF" d="m105.23,141.3l-13.9088,5.206c-2.1724,0.813 -3.2744,3.233 -2.4613,5.406l6.8517,18.307c0.8131,2.173 3.2333,3.275 5.4054,2.462l13.909,-5.206c2.173,-0.813 3.275,-3.233 2.462,-5.406l-6.852,-18.307c-0.813,-2.173 -3.233,-3.275 -5.406,-2.462z"/>
  <path id="svg_13" fill="#208AF2" d="m108.177,137.509l-0.132,0.049c-1.449,0.542 -2.183,2.156 -1.641,3.604l9.598,25.647c0.542,1.448 2.156,2.183 3.604,1.641l0.132,-0.05c1.448,-0.542 2.183,-2.155 1.641,-3.604l-9.599,-25.646c-0.542,-1.448 -2.155,-2.183 -3.603,-1.641z"/>
  <path id="svg_14" fill="#418DF9" d="m143.694,121.17c-0.501,-0.056 -0.961,-0.303 -1.283,-0.691c-0.321,-0.388 -0.48,-0.885 -0.443,-1.388l1.038,-18.956c0.062,-1.1323 1.018,-1.9926 2.103,-1.8925l1.512,0.14c1.085,0.1001 1.862,1.12 1.71,2.2445l-2.55,18.816c-0.058,0.501 -0.308,0.96 -0.697,1.282c-0.389,0.322 -0.887,0.481 -1.39,0.445z"/>
  <path id="svg_15" fill="#418DF9" d="m134.733,122.804c-0.156,0.046 -0.319,0.061 -0.481,0.044c-0.161,-0.018 -0.318,-0.067 -0.46,-0.145c-0.143,-0.077 -0.268,-0.182 -0.37,-0.309c-0.102,-0.126 -0.178,-0.272 -0.224,-0.427l-3.706,-11.792c-0.108,-0.335 -0.078,-0.7 0.082,-1.013c0.161,-0.314 0.439,-0.551 0.775,-0.659l0.959,-0.29c0.165,-0.048 0.338,-0.061 0.508,-0.039c0.17,0.022 0.333,0.079 0.48,0.168c0.147,0.088 0.274,0.206 0.373,0.346c0.099,0.14 0.168,0.299 0.202,0.467l2.747,12.082c0.077,0.324 0.028,0.666 -0.136,0.957c-0.164,0.29 -0.431,0.508 -0.749,0.61z"/>
  <path id="svg_16" fill="#418DF9" d="m129.732,129.604c-0.664,0.823 -2,0.813 -3.028,-0.022l-18.251,-14.829c-1.091,-0.886 -1.412,-2.352 -0.708,-3.224l0.982,-1.216c0.705,-0.873 2.151,-0.801 3.183,0.157l17.27,16.046c0.973,0.903 1.216,2.266 0.552,3.088z"/>
  <path id="svg_17" fill="#418DF9" d="m138.169,167.906c0.47,0.182 0.851,0.539 1.063,0.996c0.213,0.457 0.239,0.979 0.075,1.455l-5.845,18.062c-0.349,1.079 -1.493,1.666 -2.517,1.292l-1.427,-0.521c-1.023,-0.374 -1.514,-1.559 -1.08,-2.606l7.271,-17.541c0.185,-0.47 0.543,-0.85 1.002,-1.062c0.458,-0.212 0.98,-0.239 1.458,-0.075z"/>
  <path id="svg_18" fill="#418DF9" d="m147.25,168.615c0.162,-0.005 0.324,0.023 0.476,0.081c0.151,0.058 0.29,0.145 0.408,0.257c0.118,0.111 0.213,0.245 0.279,0.393c0.066,0.148 0.103,0.308 0.107,0.471l0.572,12.347c0.018,0.352 -0.103,0.696 -0.339,0.958c-0.235,0.263 -0.565,0.421 -0.916,0.44l-1.002,0.035c-0.172,0.004 -0.342,-0.027 -0.501,-0.092c-0.159,-0.065 -0.302,-0.162 -0.422,-0.285c-0.119,-0.123 -0.212,-0.269 -0.272,-0.43c-0.059,-0.161 -0.085,-0.332 -0.076,-0.503l0.43,-12.382c0.009,-0.334 0.144,-0.652 0.376,-0.891c0.233,-0.239 0.547,-0.381 0.88,-0.399z"/>
  <path id="svg_19" fill="#418DF9" d="m153.822,163.317c0.852,-0.626 2.141,-0.275 2.921,0.795l13.86,18.998c0.827,1.135 0.764,2.634 -0.14,3.298l-1.26,0.925c-0.904,0.664 -2.285,0.225 -3.038,-0.965l-12.6,-19.924c-0.708,-1.121 -0.595,-2.501 0.257,-3.127z"/>
 </g>
</svg>