<svg width="280" height="280" xmlns="http://www.w3.org/2000/svg" fill="none">

 <g>
  <title>Layer 1</title>
  <path id="svg_1" fill="#DEE9FF" d="m181.008,72.4165c0,0 -13.984,35.6835 40.334,68.5555c48.239,29.193 -1.01,78.1 -28.917,86.238c-36.15,10.542 -76.444,-21.215 -94.7581,4.908c-18.3137,26.123 -73.976,-20.608 -48.783,-61.405c31.3387,-50.75 -6.0088,-51.534 -12.2616,-73.6401c-4.4877,-15.8654 25.7209,-59.5902 61.2719,-45.8888c29.9158,11.5292 35.2508,-0.8827 42.4248,-8.1921c10.345,-10.5421 48.577,-3.2688 40.689,29.4245z"/>
  <path id="svg_2" fill="#A2BDFF" d="m119.973,190.27c-9.032,-0.41 -19.297,-11.222 -14.78,-14.096c4.516,-2.874 3.968,-8.895 2.326,-9.716c-10.127,-3.968 -12.5905,-12.864 -14.7801,-24.223c-2.1896,-11.359 -0.958,-47.4876 -0.958,-47.4876l12.7271,-6.4322l35.172,-2.0528l9.99,16.5596c0,0 -3.662,9.886 -3.969,19.778c2.398,-1.916 6.586,-4.555 9.716,-2.672c2.026,1.216 3.247,3.115 3.766,5.239c0.674,2.754 0.165,5.896 -1.302,8.447c-1.019,1.773 -2.212,3.542 -3.865,4.9c-2.338,1.921 -5.6,3.011 -10.631,2.124c0.203,2.699 5.463,2.814 5.463,5.567c0,2.6 -0.098,6.569 0,8.074c0.821,12.317 7.527,16.56 10.948,20.665c3.421,4.106 -30.791,15.737 -39.823,15.326z"/>
  <path id="svg_3" fill="#0E84E5" d="m93.8357,139.36c5.5167,0 9.9893,-4.862 9.9893,-10.861c0,-5.999 -4.4726,-10.862 -9.9893,-10.862c-5.5167,0 -9.9889,4.863 -9.9889,10.862c0,5.999 4.4722,10.861 9.9889,10.861z"/>
  <path id="svg_4" fill="#D4E5FF" d="m93.8352,137.208c4.4585,0 8.0728,-3.899 8.0728,-8.709c0,-4.81 -3.6143,-8.709 -8.0728,-8.709c-4.4585,0 -8.0728,3.899 -8.0728,8.709c0,4.81 3.6143,8.709 8.0728,8.709z"/>
  <path id="svg_5" fill="#0E84E5" d="m120.179,140.181c5.328,0 9.648,-4.534 9.648,-10.127c0,-5.593 -4.32,-10.127 -9.648,-10.127c-5.329,0 -9.648,4.534 -9.648,10.127c0,5.593 4.319,10.127 9.648,10.127z"/>
  <path id="svg_6" fill="#D4E5FF" d="m120.178,138.608c4.242,0 7.681,-3.829 7.681,-8.553c0,-4.724 -3.439,-8.554 -7.681,-8.554c-4.242,0 -7.68,3.83 -7.68,8.554c0,4.724 3.438,8.553 7.68,8.553z"/>
  <path id="svg_7" fill="#0E84E5" d="m103.344,125.166c0,0 4.961,-1.886 8.229,1.672c0,0.616 -0.496,1.661 -0.496,1.661c0,0 -4.382,-3.44 -7.733,-0.84c-0.546,-1.076 -0.875,-2.243 0,-2.493z"/>
  <path id="svg_8" fill="#0E84E5" d="m129.015,127.412l16.535,-5.911l-0.158,1.463l-15.848,6.622l-0.529,-2.174z"/>
  <path id="svg_9" fill="#0E84E5" d="m61.8485,200.274c-0.3649,-0.991 -0.5083,-2.05 -0.4199,-3.102c0.0884,-1.053 0.4063,-2.073 0.9314,-2.989l4.2401,-7.471c0,0 0.5474,-2.919 12.9555,-4.653c12.4081,-1.733 24.3444,-4.851 25.6374,-5.884c0,0 21.925,18.833 54.208,-1.692c0,0 26.353,14.875 32.374,15.423c3.537,0.322 6.288,7.285 7.955,12.978c0.276,0.944 0.356,1.936 0.234,2.913c-0.123,0.977 -0.444,1.918 -0.945,2.765c-0.501,0.848 -1.171,1.583 -1.968,2.161c-0.797,0.578 -1.704,0.986 -2.665,1.2c-26.643,5.926 -119.288,23.747 -132.5375,-11.649z"/>
  <path id="svg_10" fill="#418DF9" d="m154.017,138.512c-3.126,7.44 -5.261,10.57 -7.768,10.292c-2.616,-0.29 -3.443,-4.522 -3.268,-8.244c5.261,1.023 8.638,-0.077 11.036,-2.048z"/>
  <path id="svg_11" fill="#418DF9" d="m159.251,124.991c-0.022,0.06 -0.044,0.12 -0.066,0.175c-0.52,-2.124 -1.741,-4.023 -3.766,-5.239c-3.213,-1.932 -7.543,0.898 -9.908,2.83c0.449,-8.616 -0.307,-18.365 -5.009,-20.484c-8.211,-3.6949 -8.545,-2.8737 -13.647,-2.6c-4.79,0.2572 -16.532,0.996 -18.525,-0.1588c1.314,1.2318 7.516,6.5198 17.408,7.0018c1.117,0.821 0.394,1.505 -0.7,1.368c-1.094,-0.137 -16.012,-0.41 -27.2339,-14.5064c0,0 -6.5087,12.1744 -6.3665,23.1284c0,0 -4.172,-8.212 -1.5711,-19.9812c1.5711,-8.7585 5.6111,-7.938 5.6111,-7.938c0,0 -2.7383,-19.5692 16.0104,-17.7901c5.474,0.6843 14.78,8.7587 21.076,8.6218c6.295,-0.1369 12.043,0.2738 12.043,0.2738c0,0 8.895,-1.3686 10.401,10.6746c0.065,2.4244 1.815,3.517 6.569,4.1057c4.9,0.6066 4.105,13.2744 -2.326,30.5184z"/>
  <path id="svg_13" fill="white" d="m212.79,204.366l-6.489,0c-0.05,0 -0.099,-0.009 -0.146,-0.029c-0.046,-0.019 -0.088,-0.047 -0.124,-0.082c-0.035,-0.036 -0.063,-0.078 -0.082,-0.124c-0.02,-0.046 -0.029,-0.096 -0.029,-0.146l0,-6.489c-0.005,-0.503 -0.208,-0.984 -0.565,-1.339c-0.358,-0.354 -0.84,-0.553 -1.344,-0.553c-0.503,0 -0.986,0.199 -1.344,0.553c-0.357,0.355 -0.56,0.836 -0.564,1.339l0,6.489c0,0.101 -0.04,0.198 -0.112,0.27c-0.072,0.071 -0.169,0.111 -0.27,0.111l-6.488,0c-0.506,0 -0.992,0.202 -1.35,0.559c-0.358,0.358 -0.559,0.844 -0.559,1.35c0,0.506 0.201,0.991 0.559,1.349c0.358,0.358 0.844,0.559 1.35,0.559l6.488,0c0.05,0 0.1,0.01 0.146,0.029c0.047,0.019 0.089,0.048 0.124,0.083c0.035,0.035 0.064,0.078 0.083,0.124c0.019,0.046 0.029,0.096 0.029,0.146l0,6.489c0.004,0.503 0.207,0.984 0.564,1.339c0.358,0.354 0.841,0.553 1.344,0.553c0.504,0 0.986,-0.199 1.344,-0.553c0.357,-0.355 0.56,-0.836 0.565,-1.339l0,-6.489c0,-0.05 0.009,-0.1 0.029,-0.146c0.019,-0.046 0.047,-0.089 0.082,-0.124c0.036,-0.035 0.078,-0.064 0.124,-0.083c0.046,-0.019 0.096,-0.029 0.146,-0.029l6.489,0c0.506,0 0.991,-0.201 1.349,-0.559c0.358,-0.358 0.559,-0.843 0.559,-1.349c0,-0.506 -0.201,-0.992 -0.559,-1.35c-0.358,-0.357 -0.843,-0.559 -1.349,-0.559z"/>
 </g>
</svg>