<svg width="280" height="280" xmlns="http://www.w3.org/2000/svg" fill="none">

 <g>
  <title>Layer 1</title>
  <path id="svg_1" fill="#DEE9FF" d="m52.6631,127.029c0,0 38.7709,-1.552 47.1494,-65.2834c7.4405,-56.59931 72.8185,-30.8373 91.7165,-8.2755c24.481,29.227 11.431,79.5039 43.1,85.8549c31.67,6.351 10.989,76.967 -37.083,70.208c-59.8,-8.408 -45.332,26.536 -63.284,41.326c-12.883,10.616 -65.7105,0.397 -67.4712,-38.136c-1.4816,-32.426 -15.1593,-32.323 -24.8542,-36c-13.9822,-5.302 -22.7925,-43.706 10.7265,-49.694z"/>
  <path id="svg_2" fill="#699CFF" d="m184.462,197.807l-38.091,-37.639l-7.543,7.633l38.092,37.639l7.542,-7.633z"/>
  <path id="svg_3" fill="#0E84E5" d="m199.013,207.92l-29.635,-29.283c-0.165,-0.163 -0.431,-0.161 -0.594,0.004l-11.216,11.351c-0.163,0.165 -0.162,0.431 0.003,0.594l29.635,29.283c0.165,0.163 0.431,0.162 0.594,-0.003l11.217,-11.352c0.163,-0.165 0.161,-0.431 -0.004,-0.594z"/>
  <path id="svg_4" fill="#0E84E5" d="m112.611,179.097c26.205,0 47.449,-21.244 47.449,-47.449c0,-26.206 -21.244,-47.4498 -47.449,-47.4498c-26.2059,0 -47.4497,21.2438 -47.4497,47.4498c0,26.205 21.2438,47.449 47.4497,47.449z"/>
  <path id="svg_5" fill="#D4E5FF" d="m112.611,171.355c21.929,0 39.707,-17.777 39.707,-39.707c0,-21.93 -17.778,-39.7073 -39.707,-39.7073c-21.9299,0 -39.7074,17.7773 -39.7074,39.7073c0,21.93 17.7775,39.707 39.7074,39.707z"/>
 </g>
</svg>