<svg width="280" height="280" xmlns="http://www.w3.org/2000/svg" fill="none">

 <g>
  <title>Layer 1</title>
  <path id="svg_1" fill="#DEE9FF" d="m96.124,49.1406c1.7203,1.7038 3.5329,3.3074 5.549,4.648c10.283,6.8398 40.88,23.2974 89.407,16.5714c60.632,-8.4039 51.737,52.559 43.012,68.806c-8.724,16.248 -40.811,46.032 -43.506,60.955c-2.695,14.923 8.837,55.683 -18.184,43.452c-27.021,-12.231 -42.631,-40.878 -78.0983,-37.548c-35.4673,3.329 -60.5294,-12.387 -44.8294,-40.467c15.7,-28.08 34.4706,-46.2 10.5122,-77.4779c-23.2934,-30.4078 15.9419,-58.9405 36.1375,-38.9395z"/>
  <path id="svg_2" fill="#418DF9" d="m157.647,80.6429c-0.45,-0.4527 -0.707,-1.0617 -0.718,-1.6997c-0.011,-0.6379 0.225,-1.2555 0.659,-1.7235l15.998,-17.2676c0.227,-0.2446 0.5,-0.4409 0.805,-0.5769c0.304,-0.1361 0.633,-0.2093 0.966,-0.215c0.334,-0.0058 0.665,0.0559 0.974,0.1813c0.309,0.1255 0.589,0.3121 0.824,0.5487l1.381,1.3907c0.235,0.2366 0.42,0.5183 0.543,0.8281c0.123,0.3098 0.182,0.6414 0.174,0.9747c-0.008,0.3333 -0.083,0.6616 -0.221,0.965c-0.139,0.3035 -0.337,0.5758 -0.583,0.8007l-17.379,15.8768c-0.471,0.4305 -1.09,0.6622 -1.728,0.6467c-0.638,-0.0156 -1.245,-0.2771 -1.695,-0.73z"/>
  <path id="svg_3" fill="#418DF9" d="m147.521,74.757c-0.383,-0.1695 -0.685,-0.4803 -0.844,-0.8674c-0.158,-0.3871 -0.161,-0.8205 -0.008,-1.2097l5.662,-14.3591c0.08,-0.2034 0.201,-0.3885 0.354,-0.5441c0.154,-0.1556 0.337,-0.2786 0.54,-0.3615c0.202,-0.0829 0.419,-0.1241 0.637,-0.121c0.219,0.0031 0.435,0.0504 0.635,0.139l1.174,0.5208c0.2,0.0886 0.38,0.2166 0.529,0.3765c0.149,0.1599 0.265,0.3483 0.339,0.5539c0.075,0.2056 0.107,0.4241 0.094,0.6424c-0.012,0.2182 -0.068,0.4318 -0.165,0.6278l-6.836,13.8383c-0.185,0.3752 -0.509,0.6643 -0.902,0.8067c-0.394,0.1424 -0.827,0.1271 -1.209,-0.0426z"/>
  <path id="svg_4" fill="#418DF9" d="m137.218,77.104c-1.305,0.2349 -2.614,-0.8847 -2.968,-2.5379l-6.279,-29.3558c-0.375,-1.7543 0.465,-3.4229 1.849,-3.6723l1.929,-0.3472c1.384,-0.2492 2.754,1.022 3.014,2.7965l4.351,29.7028c0.245,1.6734 -0.591,3.1789 -1.896,3.4139z"/>
  <path id="svg_5" fill="#699CFF" d="m238.712,104.731l-27.694,-3.57c-0.466,-0.05 -0.937,0.043 -1.348,0.268c-0.412,0.224 -0.746,0.569 -0.956,0.988l-7.364,14.54l-30.826,61.651c-0.328,0.651 -0.877,1.164 -1.548,1.447c-0.672,0.283 -1.423,0.318 -2.118,0.097l-83.67,-26.707c-0.2308,-0.073 -0.4758,-0.091 -0.7148,-0.052c-0.239,0.04 -0.4652,0.135 -0.66,0.279c-0.1949,0.144 -0.3527,0.333 -0.4606,0.549c-0.1079,0.217 -0.1628,0.457 -0.1601,0.699l0.0384,3.474c0.0047,0.484 0.1617,0.953 0.4486,1.341c0.287,0.389 0.6892,0.677 1.1495,0.824l88.525,28.256c0.987,0.315 1.873,0.885 2.569,1.653c0.695,0.768 1.175,1.706 1.392,2.719l0.029,0.138c0.77,4.23 -3.398,7.702 -7.506,6.455l-97.0707,-31.024c-0.4979,-0.158 -0.9269,-0.482 -1.2158,-0.917c-0.2889,-0.435 -0.4205,-0.956 -0.3731,-1.477l7.597,-82.9592c0.0382,-0.4277 0.1659,-0.8427 0.3749,-1.2178c0.2089,-0.3752 0.4944,-0.7022 0.838,-0.9599c0.3435,-0.2577 0.7374,-0.4402 1.1561,-0.5358c0.4187,-0.0955 0.8528,-0.102 1.2741,-0.0189l116.2895,22.7486l7.49,-14.8849c0.216,-0.4207 0.556,-0.7649 0.974,-0.9862c0.418,-0.2212 0.894,-0.3089 1.364,-0.2511l33.913,4.3428c0.301,0.0378 0.591,0.1349 0.854,0.2856c0.263,0.1508 0.494,0.3522 0.678,0.5927c0.185,0.2404 0.32,0.5151 0.398,0.8082c0.078,0.293 0.097,0.5986 0.055,0.899l-1.156,8.5299c-0.08,0.601 -0.395,1.147 -0.876,1.517c-0.481,0.37 -1.088,0.535 -1.69,0.459z"/>
  <path id="svg_6" fill="#DEE9FF" d="m81.4647,139.242l9.4758,3.024l9.0895,-46.0916l-14.5471,-2.2337l-4.0182,45.3013z"/>
  <path id="svg_7" fill="#DEE9FF" d="m155.813,162.972l9.476,3.025l24.505,-51.613l-10.437,-2.528l-23.544,51.116z"/>
  <path id="svg_8" fill="#DEE9FF" d="m119.368,151.34l8.746,2.791l18.737,-48.634l-14.315,-2.963l-13.168,48.806z"/>
  <path id="svg_9" fill="#DEE9FF" d="m108.281,98.0046l14.314,2.9624l-12.703,47.348l-9.476,-3.025l7.865,-47.2854z"/>
  <path id="svg_10" fill="#DEE9FF" d="m170.377,109.793l-14.314,-2.963l-17.744,50.558l8.747,2.792l23.311,-50.387z"/>
  <path id="svg_11" fill="#A2BDFF" d="m83.2932,198.708c6.1273,0 11.0944,-4.967 11.0944,-11.095c0,-6.127 -4.9671,-11.094 -11.0944,-11.094c-6.1273,0 -11.0945,4.967 -11.0945,11.094c0,6.128 4.9672,11.095 11.0945,11.095z"/>
  <path id="svg_12" fill="#A2BDFF" d="m152.539,220.81c6.127,0 11.094,-4.967 11.094,-11.094c0,-6.128 -4.967,-11.095 -11.094,-11.095c-6.127,0 -11.094,4.967 -11.094,11.095c0,6.127 4.967,11.094 11.094,11.094z"/>
  <path id="svg_13" fill="#A2BDFF" d="m243.694,91.1807l-29.228,-3.6591c-0.162,-0.0203 -0.31,0.0946 -0.33,0.2567l-1.771,14.1507c-0.021,0.162 0.094,0.31 0.256,0.33l29.228,3.659c0.162,0.02 0.31,-0.095 0.33,-0.257l1.771,-14.1502c0.021,-0.162 -0.094,-0.3098 -0.256,-0.3301z"/>
 </g>
</svg>