<svg width="280" height="280" xmlns="http://www.w3.org/2000/svg" fill="none">

 <g>
  <title>Layer 1</title>
  <path id="svg_1" fill="#DEE9FF" d="m41.5004,212.398c7.616,18.585 20.034,22.453 28.7648,18.585c16.8851,-7.482 60.7468,-15.84 105.7938,3.808c59.663,26.023 72.357,-13.239 53.316,-52.954c-19.041,-39.714 -25.495,-79.877 -3.544,-102.0039c21.951,-22.1271 -6.774,-56.7419 -57.787,-20.7103c-32.966,23.2849 -57.16,18.1001 -70.1519,11.5175c-12.2444,-6.2038 -25.8616,-12.6896 -38.6197,-7.6255c-15.4805,6.145 -21.5803,19.4677 1.9726,49.2312c33.3764,42.176 -36.8169,58.494 -19.7446,100.152z"/>
  <path id="svg_2" fill="#A2BDFF" d="m72.5103,121.864l118.5277,0l0,91.156c0,0.185 -0.073,0.363 -0.205,0.494c-0.131,0.132 -0.309,0.206 -0.495,0.206l-117.1277,0c-0.1857,0 -0.3638,-0.074 -0.495,-0.206c-0.1313,-0.131 -0.205,-0.309 -0.205,-0.494l0,-91.156z"/>
  <path id="svg_3" fill="#418DF9" d="m161.304,86.1428l-55.114,0l-33.6797,35.7212l118.5277,0l-29.734,-35.7212z"/>
  <path id="svg_4" fill="#699CFF" d="m83.7369,71.8541l22.4531,14.2887l-33.6798,35.7212l-25.5154,-19.391l36.7421,-30.6189z"/>
  <path id="svg_5" fill="#699CFF" d="m183.757,71.8541l-22.454,14.2887l29.735,35.7212l29.461,-19.391l-36.742,-30.6189z"/>
  <path id="svg_6" fill="#418DF9" d="m120.67,72.5847c0.634,-0.3005 1.127,-0.8342 1.376,-1.4896c0.249,-0.6554 0.236,-1.3818 -0.038,-2.0274l-10.101,-23.8179c-0.143,-0.3374 -0.353,-0.6423 -0.617,-0.8965c-0.264,-0.2542 -0.576,-0.4524 -0.919,-0.5827c-0.342,-0.1303 -0.708,-0.19 -1.074,-0.1754c-0.366,0.0145 -0.726,0.1029 -1.057,0.2599l-1.946,0.9228c-0.331,0.157 -0.627,0.3793 -0.87,0.6536c-0.243,0.2743 -0.428,0.5949 -0.544,0.9425c-0.116,0.3476 -0.16,0.7151 -0.13,1.0804c0.03,0.3652 0.133,0.7206 0.303,1.0449l12.047,22.8951c0.327,0.6206 0.881,1.0909 1.546,1.3128c0.665,0.2218 1.39,0.1779 2.024,-0.1225z"/>
  <path id="svg_7" fill="#418DF9" d="m133.334,70.2757c0.458,-0.0327 0.886,-0.2413 1.195,-0.5823c0.308,-0.3409 0.473,-0.7879 0.46,-1.2474l-0.499,-16.9563c-0.007,-0.2401 -0.063,-0.4764 -0.164,-0.6946c-0.1,-0.2181 -0.244,-0.4137 -0.422,-0.5748c-0.179,-0.1612 -0.388,-0.2847 -0.615,-0.363c-0.227,-0.0784 -0.468,-0.11 -0.707,-0.0929l-1.409,0.1004c-0.24,0.017 -0.473,0.0823 -0.687,0.192c-0.214,0.1096 -0.403,0.2614 -0.557,0.4461c-0.153,0.1846 -0.268,0.3985 -0.337,0.6286c-0.069,0.2301 -0.09,0.4718 -0.063,0.7105l1.907,16.856c0.052,0.457 0.278,0.8763 0.632,1.1703c0.353,0.294 0.807,0.44 1.266,0.4074z"/>
  <path id="svg_8" fill="#418DF9" d="m143.11,76.5438c1.262,0.7293 3.032,0.0601 4.014,-1.5173l17.439,-28.0074c1.042,-1.6732 0.795,-3.7124 -0.542,-4.4859l-1.865,-1.078c-1.338,-0.7736 -3.229,0.0297 -4.159,1.7672l-15.574,29.0853c-0.877,1.6381 -0.574,3.5067 0.687,4.2361z"/>
 </g>
</svg>