<svg width="280" height="280" xmlns="http://www.w3.org/2000/svg" fill="none">

 <g>
  <title>Layer 1</title>
  <path id="svg_1" fill="#DEE9FF" d="m46.3261,209.322c7.406,18.073 19.4814,21.836 27.972,18.073c16.4202,-7.275 59.0739,-15.403 102.8809,3.704c58.02,25.307 70.365,-12.874 51.848,-51.495c-18.517,-38.621 -24.794,-77.678 -3.447,-99.1956c21.347,-21.5178 -6.588,-55.179 -56.196,-20.1399c-32.059,22.6436 -55.586,17.6013 -68.22,11.2c-11.9075,-6.0331 -25.1498,-12.3402 -37.5565,-7.4157c-15.0546,5.9758 -20.986,18.9318 1.918,47.8752c32.4583,41.015 -35.802,56.884 -19.1994,97.394z"/>
  <path id="svg_2" fill="#699CFF" d="m214.055,84.5613c-0.198,0.2497 -0.419,0.4794 -0.661,0.686l-17.305,14.9767l-12.917,39.232l-36.009,26.313c0,0 -6.135,5.14 -11.736,5.617c-1.254,0.438 -5.052,1.916 -7.156,4.2c-0.678,0.736 -5.997,16.445 -14.247,38.66c-0.413,1.112 -1.226,2.029 -2.281,2.572c-1.054,0.542 -2.274,0.671 -3.418,0.361c-10.3096,-2.798 -33.4006,-8.959 -44.387,-13.121c-0.677,-0.256 -1.2811,-0.674 -1.7594,-1.217c-0.4782,-0.543 -0.8161,-1.196 -0.9841,-1.9c-0.168,-0.704 -0.1609,-1.438 0.0206,-2.139c0.1814,-0.7 0.5318,-1.346 1.0204,-1.88c12.6243,-13.799 39.1665,-45.384 39.1665,-45.384l1.8,-3.74c0,0 11.339,-35.427 15.048,-37.73c1.402,-1.523 9.47,-13.3327 12.644,-21.5714c0.722,-1.199 4.068,-6.1891 6.871,-10.4976c1.986,-3.08 3.71,-5.82 4.004,-6.6026c0.063,-0.1793 0.169,-0.3406 0.308,-0.4698c0,0 -0.008,-0.0025 0.003,-0.009c1.337,-1.397 5.775,-1.0815 5.99,4.2223c0.241,5.8506 -5.02,17.9875 -6.079,18.3181c-0.536,1.2908 -2.058,8.243 -5.036,14.129c-0.257,0.89 -0.64,3.188 1.872,2.631c2.514,-0.567 60.669,-27.9637 60.669,-27.9637l7.213,-4.531c1.062,-0.6875 2.326,-0.9956 3.586,-0.8743c1.492,0.1716 2.859,0.9146 3.815,2.073c2.058,2.3848 0.714,4.6759 -0.055,5.6393z"/>
  <path id="svg_3" fill="#D4E5FF" d="m140.705,78.9615c-1.039,0.0955 -2.1,-0.4029 -2.94,-0.9632c1.986,-3.08 3.71,-5.82 4.004,-6.6026c0.063,-0.1793 0.169,-0.3406 0.309,-0.4698c2.393,2.8581 -1.086,7.7424 -1.373,8.0356z"/>
  <path id="svg_4" fill="#0E84E5" d="m200.134,72.6463l-42.617,-12.2835c-2.971,-0.8566 -6.075,0.8581 -6.931,3.8299l-25.788,89.4663c-0.857,2.971 0.858,6.075 3.83,6.932l42.616,12.283c2.972,0.857 6.075,-0.858 6.932,-3.83l25.787,-89.4658c0.857,-2.9718 -0.858,-6.0753 -3.829,-6.9319z"/>
  <path id="svg_5" fill="#D4E5FF" d="m197.893,74.887l-39.672,-11.4351c-2.229,-0.6424 -4.556,0.6436 -5.199,2.8725l-25.027,86.8266c-0.642,2.229 0.644,4.557 2.873,5.199l39.672,11.435c2.229,0.642 4.557,-0.644 5.199,-2.872l25.027,-86.8271c0.642,-2.2289 -0.644,-4.5565 -2.873,-5.1989z"/>
  <path id="svg_6" fill="#699CFF" d="m199.924,104.157l-7.153,-0.057c-3.538,-0.027 -6.428,2.818 -6.456,6.356c-0.028,3.538 2.817,6.428 6.355,6.456l7.153,0.057c3.537,0.028 6.428,-2.818 6.456,-6.356c0.028,-3.538 -2.818,-6.428 -6.355,-6.456z"/>
  <path id="svg_7" fill="#699CFF" d="m197.444,117.398l-9.056,-0.071c-2.869,-0.023 -5.213,2.284 -5.236,5.153c-0.023,2.869 2.285,5.213 5.154,5.236l9.056,0.071c2.869,0.023 5.213,-2.284 5.235,-5.153c0.023,-2.869 -2.285,-5.213 -5.153,-5.236z"/>
  <path id="svg_8" fill="#699CFF" d="m191.405,128.765l-5.351,-0.042c-2.169,-0.017 -3.94,1.727 -3.957,3.896c-0.018,2.168 1.727,3.94 3.895,3.957l5.351,0.042c2.168,0.017 3.94,-1.727 3.957,-3.895c0.017,-2.169 -1.727,-3.94 -3.895,-3.958z"/>
  <path id="svg_9" fill="#D4E5FF" d="m188.256,130.186l-3.126,-0.024c-0.541,-0.004 -0.983,0.431 -0.988,0.972l-0.022,2.797c-0.004,0.541 0.431,0.983 0.972,0.988l3.127,0.024c0.541,0.004 0.983,-0.431 0.987,-0.972l0.022,-2.797c0.005,-0.541 -0.431,-0.983 -0.972,-0.988z"/>
  <path id="svg_10" fill="#D4E5FF" d="m191.426,119.792l-3.502,-0.028c-1.16,-0.009 -2.108,0.924 -2.117,2.084l-0.013,1.694c-0.009,1.159 0.924,2.107 2.083,2.116l3.503,0.028c1.159,0.009 2.107,-0.924 2.116,-2.084l0.014,-1.694c0.009,-1.159 -0.924,-2.107 -2.084,-2.116z"/>
  <path id="svg_11" fill="#D4E5FF" d="m195.913,106.356l-2.828,-0.023c-1.547,-0.012 -2.81,1.232 -2.822,2.778l-0.018,2.224c-0.012,1.546 1.232,2.81 2.778,2.822l2.828,0.022c1.546,0.013 2.81,-1.231 2.822,-2.777l0.018,-2.224c0.012,-1.547 -1.232,-2.81 -2.778,-2.822z"/>
  <path id="svg_12" fill="#699CFF" d="m90.289,133.069c-0.2017,0.623 -0.2142,1.291 -0.0358,1.921c0.1783,0.63 0.5394,1.193 1.0377,1.618c0.4982,0.424 1.1112,0.692 1.7615,0.768c0.6502,0.077 1.3085,-0.042 1.8915,-0.339c0.5831,-0.298 1.0648,-0.762 1.3841,-1.334c0.3194,-0.571 0.4621,-1.225 0.4101,-1.877c-0.052,-0.653 -0.2963,-1.276 -0.7021,-1.789c-0.4058,-0.514 -0.9548,-0.896 -1.5777,-1.098c-0.8352,-0.27 -1.7437,-0.198 -2.5256,0.202c-0.7818,0.399 -1.3731,1.092 -1.6437,1.928z"/>
  <path id="svg_13" fill="#699CFF" d="m88.7931,124.993c-1.1964,0.607 -2.2606,1.445 -3.1308,2.466c-0.8701,1.021 -1.5291,2.205 -1.9386,3.482c-0.1583,0.489 -0.116,1.021 0.1177,1.478c0.2337,0.458 0.6396,0.804 1.1285,0.962c0.4888,0.159 1.0205,0.116 1.4781,-0.117c0.4576,-0.234 0.8036,-0.64 0.9619,-1.129c0.2563,-0.791 0.666,-1.525 1.2058,-2.158c0.5397,-0.633 1.199,-1.154 1.94,-1.533c0.741,-0.378 1.5494,-0.607 2.3788,-0.673c0.8295,-0.066 1.6638,0.032 2.4554,0.289c0.4888,0.158 1.0205,0.116 1.4781,-0.118c0.4576,-0.234 0.8036,-0.64 0.962,-1.128c0.1583,-0.489 0.1159,-1.021 -0.1177,-1.479c-0.2337,-0.457 -0.6397,-0.803 -1.1285,-0.962c-1.275,-0.417 -2.6201,-0.577 -3.9574,-0.47c-1.3373,0.106 -2.6402,0.477 -3.8333,1.09z"/>
  <path id="svg_14" fill="#699CFF" d="m85.8914,119.311c-1.9441,0.986 -3.6732,2.348 -5.0873,4.007c-1.4141,1.659 -2.485,3.582 -3.1509,5.658c-0.0798,0.242 -0.1109,0.498 -0.0916,0.752c0.0193,0.255 0.0888,0.503 0.2043,0.731c0.1155,0.227 0.2748,0.43 0.4688,0.596c0.194,0.165 0.4189,0.291 0.6617,0.37c0.2428,0.078 0.4987,0.108 0.7531,0.088c0.2543,-0.021 0.5021,-0.091 0.7291,-0.208c0.227,-0.117 0.4288,-0.277 0.5936,-0.472c0.1649,-0.195 0.2896,-0.42 0.3671,-0.663c0.5144,-1.589 1.3368,-3.061 2.4201,-4.332c1.0833,-1.271 2.4064,-2.316 3.8936,-3.075c1.4873,-0.76 3.1096,-1.219 4.7743,-1.352c1.6647,-0.132 3.3393,0.064 4.928,0.579c0.4888,0.158 1.0205,0.116 1.4781,-0.118c0.4575,-0.233 0.8036,-0.639 0.9619,-1.128c0.1583,-0.489 0.1159,-1.021 -0.1178,-1.478c-0.2337,-0.458 -0.6396,-0.804 -1.1285,-0.962c-2.0716,-0.678 -4.257,-0.937 -6.4297,-0.764c-2.1727,0.173 -4.2895,0.775 -6.2279,1.771z"/>
  <path id="svg_15" fill="#699CFF" d="m100.52,112.221c-2.8715,-0.93 -5.8982,-1.286 -8.9073,-1.046c-3.009,0.239 -5.9414,1.069 -8.6297,2.442c-2.6883,1.373 -5.0797,3.262 -7.0379,5.559c-1.9581,2.298 -3.4446,4.958 -4.3744,7.83c-0.0784,0.242 -0.1083,0.497 -0.0881,0.751c0.0202,0.253 0.0901,0.5 0.2058,0.727c0.1157,0.227 0.275,0.428 0.4686,0.593c0.1936,0.165 0.4178,0.291 0.6598,0.369c0.2421,0.078 0.4972,0.108 0.7508,0.088c0.2536,-0.02 0.5008,-0.09 0.7274,-0.206c0.2265,-0.115 0.4281,-0.275 0.5932,-0.468c0.165,-0.194 0.2903,-0.418 0.3687,-0.66c0.773,-2.388 2.0089,-4.6 3.6369,-6.51c1.628,-1.91 3.6163,-3.48 5.8514,-4.622c2.2351,-1.141 4.6731,-1.831 7.1749,-2.03c2.5018,-0.199 5.0182,0.096 7.4057,0.87c0.4889,0.158 1.0212,0.116 1.4782,-0.118c0.458,-0.234 0.804,-0.64 0.962,-1.128c0.159,-0.489 0.116,-1.021 -0.117,-1.479c-0.234,-0.458 -0.64,-0.804 -1.129,-0.962z"/>
  <path id="svg_16" fill="#0E84E5" d="m224.38,41.8482c-4.545,-2.7756 -8.277,-1.3564 -9.388,0.462c-0.802,1.3134 -0.061,2.5979 0.848,3.1531c1.818,1.1102 2.661,-1.9349 6.095,0.1623c1.684,1.028 2.578,2.5914 1.632,4.1402c-1.111,1.8183 -3.633,1.7108 -5.32,1.9751c-1.491,0.2457 -3.613,0.845 -5.381,3.7408c-1.07,1.751 -0.907,2.5438 0.473,3.3869c1.65,1.0073 2.439,0.4722 2.83,-0.168c1.069,-1.751 1.72,-2.7407 4.456,-3.0578c1.341,-0.1519 5.601,-0.6942 7.534,-3.8593c1.933,-3.1652 0.531,-7.3036 -3.779,-9.9353z"/>
  <path id="svg_17" fill="#0E84E5" d="m211.954,61.2122c-0.34,-0.2079 -0.719,-0.3468 -1.113,-0.4086c-0.394,-0.0618 -0.796,-0.0453 -1.184,0.0484c-0.388,0.0938 -0.754,0.263 -1.076,0.498c-0.322,0.235 -0.595,0.5312 -0.803,0.8717c-0.208,0.3405 -0.347,0.7186 -0.409,1.1128c-0.062,0.3941 -0.045,0.7966 0.048,1.1844c0.094,0.3878 0.263,0.7533 0.498,1.0757c0.235,0.3224 0.532,0.5954 0.872,0.8033c0.688,0.42 1.514,0.5496 2.297,0.3602c0.784,-0.1893 1.46,-0.682 1.88,-1.3696c0.419,-0.6877 0.549,-1.514 0.36,-2.2972c-0.19,-0.7832 -0.682,-1.4591 -1.37,-1.8791z"/>
 </g>
</svg>