<svg width="101" height="42" xmlns="http://www.w3.org/2000/svg" fill="none">

 <g>
  <title>Layer 1</title>
  <path id="svg_1" fill="#0e84e5" d="m12.0288,18.2598c-4.05874,-0.8805 -5.86689,-1.225 -5.86689,-2.789c0,-1.4711 1.22364,-2.2039 3.67092,-2.2039c2.15227,0 3.72557,0.9406 4.88367,2.7835c0.0874,0.1422 0.2676,0.1914 0.4151,0.1149l4.5668,-2.3078c0.1639,-0.082 0.224,-0.2898 0.1311,-0.4484c-1.8955,-3.2867 -5.3971,-5.08586 -10.00759,-5.08586c-6.05812,0 -9.82191,2.98586 -9.82191,7.73266c0,5.0421 4.58319,6.3163 8.64743,7.1968c4.06427,0.8804 5.87787,1.2249 5.87787,2.789c0,1.564 -1.322,2.3023 -3.9605,2.3023c-2.43632,0 -4.24447,-1.1156 -5.33701,-3.2812c-0.08194,-0.1586 -0.27313,-0.2242 -0.43155,-0.1422l-4.55588,2.2585c-0.15842,0.0821 -0.22397,0.2735 -0.14203,0.4375c1.80815,3.6367 5.51731,5.682 10.47197,5.682c6.3094,0 10.1224,-2.9367 10.1224,-7.8311c0,-4.8945 -4.6051,-6.3163 -8.6639,-7.1968l0,-0.0109z"/>
  <path id="svg_2" fill="#0e84e5" d="m36.5018,8.32341c-2.5893,0 -4.8782,0.91873 -6.5224,2.55389c-0.1038,0.0984 -0.2732,0.0273 -0.2732,-0.1149l0,-10.43963c0,-0.18046 -0.142,-0.32265 -0.3223,-0.32265l-5.7139,0c-0.1803,0 -0.3223,0.14219 -0.3223,0.32265l0,32.40173c0,0.1805 0.142,0.3227 0.3223,0.3227l5.7139,0c0.1803,0 0.3223,-0.1422 0.3223,-0.3227l0,-14.213c0,-2.7453 2.1032,-4.8507 4.9383,-4.8507c2.8351,0 4.8891,2.0617 4.8891,4.8507l0,14.213c0,0.1805 0.142,0.3227 0.3223,0.3227l5.714,0c0.1802,0 0.3223,-0.1422 0.3223,-0.3227l0,-14.213c0,-5.9718 -3.9113,-10.18263 -9.3904,-10.18263l0,-0.00546z"/>
  <path id="svg_3" fill="#0e84e5" d="m57.4962,7.39915c-3.1028,0 -6.0198,0.94607 -8.1066,2.3187c-0.142,0.09297 -0.1912,0.28435 -0.1038,0.43205l2.5183,4.3038c0.0929,0.1531 0.2896,0.2078 0.4425,0.1148c1.5842,-0.957 3.3978,-1.4546 5.2496,-1.4437c4.9875,0 8.6529,3.5218 8.6529,8.1757c0,3.9647 -2.9334,6.9014 -6.6535,6.9014c-3.0318,0 -5.1349,-1.7664 -5.1349,-4.2601c0,-1.4273 0.6063,-2.5976 2.185,-3.4234c0.1639,-0.0875 0.224,-0.2898 0.1257,-0.4484l-2.3763,-4.0249c-0.0765,-0.1313 -0.2403,-0.1914 -0.3878,-0.1367c-3.1848,1.1812 -5.419,4.0249 -5.419,7.842c0,5.7749 4.5941,10.0842 11.0018,10.0842c7.4839,0 12.8647,-5.1898 12.8647,-12.6326c0,-7.9787 -6.2603,-13.80832 -14.8695,-13.80832l0.0109,0.00547z"/>
  <path id="svg_4" fill="#0e84e5" d="m89.0635,8.27964c-2.8897,0 -5.4681,1.06639 -7.3527,2.94756c-0.1038,0.1039 -0.2732,0.0274 -0.2732,-0.1148l0,-2.26402c0,-0.18047 -0.142,-0.32265 -0.3223,-0.32265l-5.5664,0c-0.1803,0 -0.3223,0.14218 -0.3223,0.32265l0,32.35252c0,0.1805 0.142,0.3227 0.3223,0.3227l5.7139,0c0.1803,0 0.3223,-0.1422 0.3223,-0.3227l0,-10.6092c0,-0.1422 0.1694,-0.2133 0.2732,-0.1203c1.8791,1.75 4.3646,2.7726 7.2107,2.7726c6.7027,0 11.931,-5.4303 11.931,-12.4849c0,-7.0546 -5.2337,-12.48493 -11.931,-12.48493l-0.0055,0.00547zm-1.0761,19.48476c-3.813,0 -6.7027,-3.0351 -6.7027,-7.0491c0,-4.0139 2.8843,-7.049 6.7027,-7.049c3.8184,0 6.6972,2.9858 6.6972,7.049c0,4.0633 -2.8406,7.0491 -6.7027,7.0491l0.0055,0z"/>
 </g>
</svg>